<?xml version="1.0" encoding="utf-8"?>
<!-- Generator: Adobe Illustrator 25.2.0, SVG Export Plug-In . SVG Version: 6.00 Build 0)  -->
<svg version="1.1" id="Layer_1" xmlns="http://www.w3.org/2000/svg" xmlns:xlink="http://www.w3.org/1999/xlink" x="0px" y="0px"
	 viewBox="0 0 250 201" style="enable-background:new 0 0 250 201;" xml:space="preserve">
<style type="text/css">
	.st0{fill:#E76F51;}
	.st1{fill:#264653;}
</style>
<g id="_x31_Miou1_1_">
	<g>
		<path class="st0" d="M103.6,149.1c42.6-12.5,70.8-36.9,71.9-85c12.4,0.1,24.4,2.6,35.4,8.4c21.5,11.5,35.2,28.8,37.8,53.7
			c1.7,16.3-2.7,31-12.5,44.1c-2,2.6-2.4,4.5-0.5,7.2c3.9,5.4,7.7,10.9,11.5,16.5c0.8,1.1,1.7,3.3,1.2,3.9c-0.9,1.1-2.9,2.1-4.2,1.8
			c-9.7-2-19.3-4.4-29-6.4c-2.6-0.5-5.8-1-8.1-0.1c-31.3,11.9-60.1,8.5-85.4-14.5C112.8,170.8,106.8,160.9,103.6,149.1z"/>
		<path class="st1" d="M140.9,24.1C124.2,8.9,104.1,2.7,81.9,2C66.6,2.6,52,5.6,38.4,13.1c-40,22-47.1,66.3-22.5,95.4
			c0.9,1.1,0.9,4,0.2,5.2c-3.9,6.2-8.4,12.2-12.5,18.3c-0.8,1.1-1.6,3-1.2,4c0.4,1,2.5,2.1,3.6,1.9c9.9-1.9,19.9-3.5,29.5-6.6
			c4.4-1.4,7.6-1.8,12-0.2c32.1,11.8,62.6,9,90-12.3C169.3,94,170.6,51.2,140.9,24.1z M91.5,105.8c-0.2,0.9-0.5,1.8-0.9,2.7
			c-0.3,0.5-0.6,1.1-1,1.5c-0.2,0.2-0.4,0.5-0.6,0.7c-0.4,0.4-0.9,0.8-1.4,1.2c-0.2,0.2-0.5,0.3-0.8,0.5c-0.5,0.3-1.1,0.5-1.7,0.7
			c-0.6,0.2-1.2,0.3-1.8,0.4c-0.3,0-0.6,0.1-1,0.1c-5.1,0-9.7-4.3-9.7-9.4v0l0,0c0-1.3,0.2-2.6,0.7-3.7c0.2-0.6,0.5-1.1,0.9-1.6
			c0.8-1.3,2-2.3,3.3-3.1s2.9-1.2,4.5-1.2c1.7,0,3.2,0.4,4.6,1.1c0.4,0.2,0.7,0.4,1.1,0.7c0.4,0.3,0.8,0.6,1.1,0.9
			c0.6,0.5,1,1.2,1.5,1.8c0.1,0.2,0.3,0.5,0.4,0.7c0.6,1.2,1,2.6,1,4.1C91.6,104.5,91.6,105.1,91.5,105.8z M111.7,57.9
			c-1.3,3.2-3.6,6-6.7,8.4c-0.7,0.6-1.4,1.1-2.2,1.6c-1.5,1-3,2-4.5,3c-0.8,0.5-1.5,1-2.2,1.5c-0.6,0.4-1.2,0.8-1.8,1.2
			c-1,0.7-2,1.3-2.9,2.1c-0.2,0.2-0.4,0.3-0.5,0.5c-0.3,0.3-0.7,0.7-1,1c-0.8,0.9-1.4,2-1.9,3.3c-0.2,0.4-0.5,0.9-0.9,1.3
			c-0.2,0.2-0.5,0.4-0.7,0.6c-0.1,0.1-0.3,0.2-0.4,0.3c-1.1,0.7-2.5,1.3-3.6,1.3c-0.1,0-0.3,0-0.4,0c-0.6-0.1-1.1-0.2-1.7-0.5
			c-0.6-0.3-1.2-0.6-1.7-1c-0.8-0.6-1.6-1.4-2.2-2.1c-0.2-0.3-0.4-0.5-0.5-0.8c-1-1.8-1.4-3.6-1.4-5.3c0-2.1,0.7-4,1.9-5.8
			c0.2-0.3,0.4-0.6,0.7-0.9c0.3-0.4,0.7-0.8,1.2-1.2c0.3-0.3,0.6-0.5,1-0.8c0.4-0.3,0.9-0.7,1.4-1c2.2-1.3,4.4-2.6,6.6-4
			c2.2-1.3,4.4-2.6,6.6-3.9c1.7-1,3.2-2.2,3.9-3.7c0.1-0.2,0.2-0.3,0.2-0.5c0.1-0.4,0.2-0.7,0.3-1.1c0-0.2,0.1-0.4,0.1-0.6
			c0-0.6,0-1.3-0.2-2c-0.7-2.6-2.3-3.9-4.5-4.4c-1-0.2-2-0.3-3.1-0.3c-4.1,0-8.2,0-12.4,0c-1.8,0-3.3,0.3-4.5,1.1
			c-0.3,0.2-0.7,0.5-0.9,0.7c-0.6,0.6-1.1,1.3-1.4,2.1c-0.3,0.6-0.5,1.4-0.7,2.2c-0.2,1.1-0.5,2-0.9,2.8c-1.2,2.8-3.3,4.3-5.7,4.5
			c-0.2,0-0.5,0-0.7,0s-0.5,0-0.8-0.1s-0.5-0.1-0.8-0.2c-0.6-0.1-1.1-0.3-1.6-0.6c-2.7-1.3-4.1-3.8-4.2-7.2c0-0.9,0.1-1.9,0.3-2.9
			c0.2-1.2,0.6-2.3,1-3.4c0.2-0.5,0.4-1.1,0.7-1.6c0.5-1,1.1-2,1.7-3c0.3-0.5,0.7-0.9,1-1.4c0.7-0.9,1.5-1.7,2.4-2.5
			c0.4-0.4,0.9-0.7,1.3-1.1c2.3-1.7,4.9-3,7.8-3.6c0.6-0.1,1.2-0.3,1.7-0.3c0.6-0.1,1.2-0.2,1.8-0.2c0,0,0.1,0,0.1,0
			c2.9-0.2,5.8,0,8.7,0c0,0,0,0,0,0c0-0.2,0-0.3,0-0.5h0l0,0c4.6,0.5,9.3,0.5,13.7,1.7c1.5,0.4,2.9,1,4.2,1.7
			c0.4,0.2,0.9,0.5,1.3,0.7c1.2,0.8,2.3,1.6,3.3,2.6c0.3,0.3,0.6,0.7,0.9,1c0.9,1.1,1.7,2.2,2.4,3.5c1.1,2.1,1.9,4.4,2.3,7
			c0.1,0.5,0.2,1,0.2,1.4c0.1,0.9,0.1,1.9,0.1,2.8C113,53.8,112.5,55.9,111.7,57.9z"/>
	</g>
</g>
</svg>
